<svg xmlns="http://www.w3.org/2000/svg" xmlns:xlink="http://www.w3.org/1999/xlink" x="0" y="0" enable-background="new 0 0 984 566" version="1.1" viewBox="0 0 984 566" xml:space="preserve"><g id="Alternative" display="none"><g id="Tagline" display="inline"><g><path fill="gray" d="M502.9,364.3v8.3h-8.4v-38.9h6.9l0.6,2.8h0.2c1.1-1,2.4-1.8,3.8-2.5c1.4-0.7,2.8-1,4.3-1 c1.7,0,3.3,0.3,4.6,1c1.4,0.7,2.5,1.7,3.5,2.9c1,1.3,1.7,2.8,2.2,4.6c0.5,1.8,0.8,3.8,0.8,5.9c0,2.4-0.3,4.6-1,6.5 c-0.7,1.9-1.6,3.5-2.7,4.8c-1.1,1.3-2.4,2.3-3.8,3c-1.4,0.7-2.9,1-4.4,1c-1.2,0-2.4-0.3-3.6-0.8c-1.1-0.5-2.2-1.2-3.2-2.2 L502.9,364.3z M502.9,354c0.8,0.7,1.5,1.2,2.3,1.4c0.8,0.3,1.5,0.4,2.2,0.4c1.5,0,2.7-0.7,3.7-2c1-1.3,1.5-3.4,1.5-6.4 c0-5.1-1.6-7.7-4.9-7.7c-1.6,0-3.3,0.9-4.9,2.6V354z"/><path fill="gray" d="M527.3,333.6h6.9l0.6,5h0.2c1-1.9,2.3-3.4,3.7-4.3c1.5-0.9,2.9-1.4,4.4-1.4c0.8,0,1.5,0,2,0.1 c0.5,0.1,1,0.2,1.4,0.4l-1.4,7.3c-0.5-0.2-1-0.3-1.5-0.3c-0.5-0.1-1-0.1-1.6-0.1c-1.1,0-2.2,0.4-3.4,1.1 c-1.2,0.8-2.1,2.1-2.9,4.1V362h-8.4V333.6z"/><path fill="gray" d="M547.9,347.8c0-2.4,0.4-4.5,1.1-6.3s1.8-3.4,3.1-4.7s2.8-2.2,4.4-2.9c1.7-0.7,3.4-1,5.2-1 c1.8,0,3.5,0.3,5.2,1c1.7,0.7,3.1,1.6,4.4,2.9s2.3,2.8,3.1,4.7c0.8,1.9,1.1,4,1.1,6.3c0,2.4-0.4,4.5-1.1,6.3 c-0.8,1.9-1.8,3.4-3.1,4.7s-2.8,2.2-4.4,2.9c-1.7,0.7-3.4,1-5.2,1c-1.8,0-3.5-0.3-5.2-1c-1.7-0.7-3.2-1.6-4.4-2.9 s-2.3-2.8-3.1-4.7C548.3,352.3,547.9,350.2,547.9,347.8z M556.5,347.8c0,2.5,0.4,4.4,1.3,5.9c0.9,1.5,2.2,2.2,3.9,2.2 c1.7,0,3-0.7,3.9-2.2c0.9-1.5,1.3-3.4,1.3-5.9c0-2.5-0.4-4.4-1.3-5.9c-0.9-1.5-2.2-2.2-3.9-2.2c-1.8,0-3.1,0.7-3.9,2.2 C557,343.4,556.5,345.3,556.5,347.8z"/><path fill="gray" d="M581.4,333.6h8.4v28.2c0,1.6-0.2,3-0.5,4.4c-0.3,1.4-0.9,2.6-1.7,3.6c-0.8,1-1.8,1.9-3.1,2.5 c-1.3,0.6-2.9,0.9-4.9,0.9c-1.2,0-2.2-0.1-3-0.2s-1.5-0.3-2-0.6l1.5-6.2c0.4,0.1,0.7,0.2,1.1,0.3c0.3,0.1,0.7,0.1,1.1,0.1 c1.1,0,1.9-0.4,2.3-1.1c0.4-0.7,0.7-1.9,0.7-3.5V333.6z M585.7,329.5c-1.4,0-2.6-0.4-3.5-1.2c-0.9-0.8-1.4-1.9-1.4-3.2 c0-1.3,0.5-2.3,1.4-3.1c0.9-0.8,2.1-1.2,3.5-1.2c1.4,0,2.6,0.4,3.5,1.2c0.9,0.8,1.4,1.9,1.4,3.1c0,1.3-0.5,2.4-1.4,3.2 C588.3,329,587.1,329.5,585.7,329.5z"/><path fill="gray" d="M595.7,347.8c0-2.3,0.4-4.4,1.1-6.2s1.8-3.4,3-4.7c1.2-1.3,2.7-2.3,4.3-2.9c1.6-0.7,3.3-1,5-1 c2,0,3.8,0.3,5.3,1c1.5,0.7,2.8,1.6,3.8,2.9c1,1.2,1.8,2.7,2.3,4.3c0.5,1.7,0.7,3.5,0.7,5.4c0,0.8,0,1.5-0.1,2.1 c-0.1,0.6-0.2,1.1-0.2,1.5h-17c0.4,2.2,1.2,3.8,2.6,4.7s2.9,1.5,4.8,1.5c2,0,4.1-0.6,6.1-1.9l2.8,5.1c-1.5,1-3.1,1.8-4.8,2.3 s-3.5,0.9-5.2,0.9c-2,0-3.9-0.3-5.7-1c-1.8-0.7-3.3-1.6-4.6-2.9c-1.3-1.3-2.3-2.8-3-4.7C596,352.3,595.7,350.2,595.7,347.8z M614,344.9c0-1.6-0.4-3-1.1-4c-0.7-1-2-1.5-3.7-1.5c-1.3,0-2.5,0.4-3.5,1.3c-1,0.9-1.7,2.3-2,4.2H614z"/><path fill="gray" d="M625.4,347.8c0-2.4,0.4-4.5,1.2-6.3c0.8-1.9,1.9-3.4,3.2-4.7s2.9-2.2,4.7-2.9c1.8-0.7,3.7-1,5.6-1 c1.8,0,3.3,0.3,4.8,0.9c1.4,0.6,2.6,1.4,3.6,2.4l-3.8,5.2c-1.3-1.1-2.7-1.7-4-1.7c-2.1,0-3.7,0.7-4.9,2.2 c-1.2,1.5-1.8,3.4-1.8,5.9c0,2.5,0.6,4.4,1.8,5.9c1.2,1.5,2.7,2.2,4.6,2.2c1,0,2-0.2,2.8-0.6c0.8-0.4,1.6-0.9,2.3-1.4l3.4,5.3 c-1.4,1.2-2.9,2.1-4.6,2.7c-1.7,0.6-3.3,0.9-4.9,0.9c-2,0-3.8-0.3-5.5-1c-1.7-0.7-3.2-1.6-4.4-2.9c-1.3-1.3-2.3-2.8-3-4.7 C625.7,352.3,625.4,350.2,625.4,347.8z"/><path fill="gray" d="M655,340.2h-3.9V334l4.4-0.3l1-7.6h7v7.6h6.8v6.6h-6.8v11.4c0,1.6,0.3,2.8,1,3.5c0.7,0.7,1.6,1.1,2.7,1.1 c0.5,0,0.9-0.1,1.4-0.2s0.9-0.2,1.3-0.4l1.3,6.1c-0.8,0.2-1.7,0.5-2.7,0.7c-1,0.2-2.2,0.3-3.6,0.3c-1.8,0-3.3-0.3-4.5-0.8 c-1.2-0.5-2.3-1.3-3-2.2c-0.8-1-1.4-2.1-1.7-3.5c-0.4-1.4-0.5-2.9-0.5-4.5V340.2z"/></g></g><g id="Type_1_" display="inline"><g><path fill="gray" d="M487.8,247.5c0-6.9,0.9-13.2,2.7-18.8c1.8-5.6,4.3-10.4,7.5-14.3c3.2-3.9,7.1-6.9,11.7-9.1 c4.6-2.1,9.7-3.2,15.3-3.2c5.1,0,9.5,1.1,13.3,3.2c3.8,2.1,6.8,4.5,9.2,7.2l-2.7,2.9c-2.4-2.8-5.3-5.1-8.6-6.8 c-3.3-1.7-7-2.5-11.2-2.5c-5.1,0-9.7,1-13.7,2.9c-4.1,1.9-7.5,4.7-10.3,8.3c-2.8,3.6-5,8-6.4,13.1c-1.5,5.1-2.2,10.8-2.2,17.2 c0,6.3,0.7,12.1,2.2,17.2c1.5,5.2,3.6,9.6,6.4,13.2c2.8,3.7,6.2,6.5,10.1,8.5c3.9,2,8.4,3,13.4,3c4.7,0,8.9-0.9,12.5-2.8 c3.6-1.9,7.1-4.7,10.5-8.4l2.7,2.7c-3.4,3.9-7.1,7-11.2,9.2c-4.1,2.2-9,3.3-14.8,3.3c-5.4,0-10.4-1.1-14.9-3.3 c-4.5-2.2-8.3-5.3-11.5-9.3c-3.2-4-5.7-8.8-7.4-14.5C488.7,260.8,487.8,254.5,487.8,247.5z"/><path fill="gray" d="M559.6,203.7h4.6l11.8,53.4l6.4,28.9h0.5c1.1-4.8,2.2-9.6,3.3-14.4c1.2-4.8,2.4-9.6,3.6-14.4l14.5-53.4 h4.8l14.5,53.4l7.2,28.9h0.5c1.1-4.8,2.1-9.6,3.1-14.4c1-4.8,2-9.6,3.1-14.4l11.8-53.4h4.3l-20.3,88.2h-4.3l-17.1-63.3 c-0.8-3.5-1.6-6.8-2.4-9.9c-0.8-3.1-1.6-6.4-2.4-9.9h-0.5c-0.8,3.5-1.7,6.8-2.5,9.9c-0.9,3.1-1.7,6.4-2.5,9.9l-16.9,63.3h-4.3 L559.6,203.7z"/><path fill="gray" d="M671.2,203.7h4.3v84.4H717v3.7h-45.8V203.7z"/></g></g><g id="Logo_1_" display="inline"><g id="w_1_"><g id="w"><g><linearGradient id="SVGID_1_" x1="316.749" x2="395.625" y1="280.468" y2="280.468" gradientUnits="userSpaceOnUse"><stop offset="0" style="stop-color:#a2b552"/><stop offset="1" style="stop-color:#6f7a1b"/></linearGradient><polygon fill="url(#SVGID_1_)" points="395.6 243.9 372.7 223.8 316.7 279.8 374.1 337.1 395.6 315.6 359.8 279.8"/></g></g></g><g id="l_1_"><g id="l"><g><linearGradient id="SVGID_2_" x1="316.749" x2="412.625" y1="373.295" y2="373.295" gradientUnits="userSpaceOnUse"><stop offset="0" style="stop-color:#c0d470"/><stop offset="1" style="stop-color:#ab9b2a"/></linearGradient><polygon fill="url(#SVGID_2_)" points="412.6 332.5 391 310.6 316.7 385.8 318.3 387.4 318.2 387.5 366.2 436 387.9 414.1 359.9 385.6"/></g></g></g><g id="c_1_"><g id="c"><g><linearGradient id="SVGID_3_" x1="366.232" x2="366.232" y1="246.781" y2="101.987" gradientUnits="userSpaceOnUse"><stop offset="0" style="stop-color:#ab9b2a"/><stop offset="1" style="stop-color:#c0d470"/></linearGradient><polygon fill="url(#SVGID_3_)" points="414.3 124.2 392.4 102 318.2 176.5 319.7 177.9 319.6 178 392.8 246.8 414.3 225.3 363 176"/></g></g></g></g></g><g id="Main"><g id="Logo"><g id="w_copy_1_"><g id="w_copy"><g><linearGradient id="SVGID_4_" x1="246" x2="324.876" y1="280.468" y2="280.468" gradientUnits="userSpaceOnUse"><stop offset="0" style="stop-color:#ad2b2f"/><stop offset="1" style="stop-color:#5b172c"/></linearGradient><polygon fill="url(#SVGID_4_)" points="324.9 243.9 301.9 223.8 246 279.8 303.4 337.1 324.9 315.6 289 279.8"/></g></g></g><g id="l_copy_1_"><g id="l_copy"><g><linearGradient id="SVGID_5_" x1="293.938" x2="293.938" y1="436" y2="310.591" gradientUnits="userSpaceOnUse"><stop offset="0" style="stop-color:#c03b70"/><stop offset="1" style="stop-color:#ab292a"/></linearGradient><polygon fill="url(#SVGID_5_)" points="341.9 332.5 320.2 310.6 246 385.8 247.6 387.4 247.4 387.5 295.5 436 317.1 414.1 289.2 385.6"/></g></g></g><g id="c_copy_1_"><g id="c_copy"><g><linearGradient id="SVGID_6_" x1="295.483" x2="295.483" y1="246.781" y2="101.987" gradientUnits="userSpaceOnUse"><stop offset="0" style="stop-color:#ab292a"/><stop offset="1" style="stop-color:#c03b70"/></linearGradient><polygon fill="url(#SVGID_6_)" points="343.5 124.2 321.7 102 247.4 176.5 248.9 177.9 248.9 178 322 246.8 343.5 225.3 292.2 176"/></g></g></g></g><g id="Type" display="none"><text display="inline" transform="matrix(1.0019 0 0 1 409.3033 223.8533)"><tspan x="0" y="0" fill="#818181" font-family="'SourceSansPro-Light'" font-size="75.449" letter-spacing="-1">C</tspan><tspan x="40.7" y="0" fill="#818181" font-family="'SourceSansPro-Light'" font-size="75.449">ommon</tspan><tspan x="0" y="76.3" fill="#818181" font-family="'SourceSansPro-Light'" font-size="75.449">W</tspan><tspan x="57.4" y="76.3" fill="#818181" font-family="'SourceSansPro-Light'" font-size="75.449">orkf</tspan><tspan x="226.9" y="76.3" fill="#818181" font-family="'SourceSansPro-Light'" font-size="75.449" letter-spacing="-1">l</tspan><tspan x="260.7" y="76.3" fill="#818181" font-family="'SourceSansPro-Light'" font-size="75.449">o</tspan><tspan x="309.2" y="76.3" fill="#818181" font-family="'SourceSansPro-Light'" font-size="75.449">w</tspan><tspan x="0" y="152.7" fill="#818181" font-family="'SourceSansPro-Light'" font-size="75.449">L</tspan><tspan x="35.8" y="152.7" fill="#818181" font-family="'SourceSansPro-Light'" font-size="75.449">ang</tspan><tspan x="169.2" y="152.7" fill="#818181" font-family="'SourceSansPro-Light'" font-size="75.449" letter-spacing="-1">u</tspan><tspan x="215.4" y="152.7" fill="#818181" font-family="'SourceSansPro-Light'" font-size="75.449">a</tspan><tspan x="254.3" y="152.7" fill="#818181" font-family="'SourceSansPro-Light'" font-size="75.449">ge</tspan></text></g><g id="Type_copy_2"><text transform="matrix(1.0019 0 0 1 409.3033 223.8533)"><tspan x="0" y="0" fill="#818181" font-family="'SourceSansPro-Light'" font-size="75.449" letter-spacing="-1">C</tspan><tspan x="40.7" y="0" fill="#818181" font-family="'SourceSansPro-Light'" font-size="75.449">OMMON</tspan><tspan x="0" y="76.3" fill="#818181" font-family="'SourceSansPro-Light'" font-size="75.449">W</tspan><tspan x="57.4" y="76.3" fill="#818181" font-family="'SourceSansPro-Light'" font-size="75.449">ORKF</tspan><tspan x="226.9" y="76.3" fill="#818181" font-family="'SourceSansPro-Light'" font-size="75.449" letter-spacing="-1">L</tspan><tspan x="260.7" y="76.3" fill="#818181" font-family="'SourceSansPro-Light'" font-size="75.449">O</tspan><tspan x="309.2" y="76.3" fill="#818181" font-family="'SourceSansPro-Light'" font-size="75.449">W</tspan><tspan x="0" y="152.7" fill="#818181" font-family="'SourceSansPro-Light'" font-size="75.449">L</tspan><tspan x="35.8" y="152.7" fill="#818181" font-family="'SourceSansPro-Light'" font-size="75.449">ANG</tspan><tspan x="169.2" y="152.7" fill="#818181" font-family="'SourceSansPro-Light'" font-size="75.449" letter-spacing="-1">U</tspan><tspan x="215.4" y="152.7" fill="#818181" font-family="'SourceSansPro-Light'" font-size="75.449">A</tspan><tspan x="254.3" y="152.7" fill="#818181" font-family="'SourceSansPro-Light'" font-size="75.449">GE</tspan></text></g><g id="Type_copy" display="none"><text fill="gray" display="inline" font-family="'SourceSansPro-ExtraLight'" font-size="200" transform="matrix(1.0019 0 0 1 409.3036 344.3976)">CWL</text><g display="inline"><path fill="gray" d="M420.5,278c0-10.4,1.3-19.8,4-28.2c2.7-8.4,6.4-15.5,11.2-21.4c4.8-5.9,10.7-10.4,17.5-13.6 c6.9-3.2,14.5-4.8,22.9-4.8c7.6,0,14.3,1.6,19.9,4.8c5.7,3.2,10.2,6.8,13.7,10.8l-4,4.4c-3.6-4.3-7.9-7.7-12.8-10.2 c-4.9-2.5-10.6-3.8-16.8-3.8c-7.6,0-14.5,1.4-20.5,4.3c-6.1,2.9-11.2,7-15.4,12.4c-4.2,5.4-7.4,11.9-9.6,19.6 c-2.2,7.7-3.3,16.2-3.3,25.7c0,9.5,1.1,18.1,3.3,25.8c2.2,7.7,5.4,14.3,9.6,19.8c4.2,5.5,9.2,9.7,15.1,12.7 c5.9,3,12.6,4.5,20,4.5c7.1,0,13.3-1.4,18.7-4.2s10.7-7,15.7-12.6l4,4c-5.1,5.9-10.7,10.5-16.7,13.8c-6.1,3.3-13.5,5-22.1,5 c-8.1,0-15.6-1.6-22.2-4.9c-6.7-3.3-12.4-7.9-17.2-13.9s-8.5-13.2-11.1-21.7C421.8,297.8,420.5,288.4,420.5,278z"/><path fill="gray" d="M527.9,212.4h6.8l17.6,80l9.6,43.2h0.8c1.6-7.2,3.3-14.4,5-21.6c1.7-7.2,3.5-14.4,5.4-21.6l21.6-80h7.2 l21.6,80l10.8,43.2h0.8c1.6-7.2,3.1-14.4,4.6-21.6c1.5-7.2,3-14.4,4.6-21.6l17.6-80h6.4l-30.5,132h-6.4l-25.6-94.8 c-1.2-5.2-2.4-10.1-3.6-14.8c-1.2-4.7-2.4-9.6-3.6-14.8h-0.8c-1.2,5.2-2.5,10.1-3.8,14.8c-1.3,4.7-2.6,9.6-3.8,14.8l-25.2,94.8 h-6.4L527.9,212.4z"/><path fill="gray" d="M695,212.4h6.4v126.4h62.1v5.6H695V212.4z"/></g></g></g><g id="Black_x2F_white_Logo" display="none"><g id="Rectangle_1_1_" display="inline"><g id="Rectangle_1"><g><rect width="323" height="321" x="158.9" y="101" fill-rule="evenodd" clip-rule="evenodd"/></g></g></g><g id="Rectangle_1_copy_1_" display="inline"><g id="Rectangle_1_copy_2_"><g><rect width="333" height="321" x="472.9" y="101" fill="#FFF" fill-rule="evenodd" clip-rule="evenodd"/></g></g></g><g id="w_copy_2_1_" display="inline"><g id="w_copy_2"><g><polygon fill="#FFF" points="346.4 237 331.4 223 295.8 258.8 295.7 258.8 281.4 273.2 295.7 287.6 295.8 287.6 330.4 322 344.4 308 310.1 273.3"/></g></g></g><g id="l_copy_2_1_" display="inline"><g id="l_copy_2_2_"><g><polygon fill="#FFF" points="345.4 309 331.4 295 281.4 344.3 282.4 345.4 282.4 345.5 314.4 378 328.8 363.3 310.2 344.2"/></g></g></g><g id="c_copy_2_1_" display="inline"><g id="c_copy_2"><g><polygon fill="#FFF" points="346.4 168.9 331.8 154 282.4 204 283.3 204.9 283.3 204.9 332.1 251.1 346.4 236.7 312.2 203.6"/></g></g></g><g id="w_copy_3_1_" display="inline"><g id="w_copy_3_2_"><g><polygon points="677.4 237 662.4 223 626.8 258.8 626.7 258.8 612.4 273.2 650.6 311.7 665 297.2 641.1 273.3"/></g></g></g><g id="l_copy_3_1_" display="inline"><g id="l_copy_3"><g><polygon points="676.3 308.6 661.9 293.9 612.4 344.3 613.4 345.4 613.4 345.5 645.4 378 659.8 363.3 641.2 344.2"/></g></g></g><g id="c_copy_3_1_" display="inline"><g id="c_copy_3_2_"><g><polygon points="677.4 168.9 662.8 154 613.4 204 614.3 204.9 614.3 204.9 663.1 251.1 677.4 236.7 643.2 203.6"/></g></g></g></g></svg>