<?xml version="1.0" encoding="UTF-8" standalone="no"?>
<svg
   xmlns:dc="http://purl.org/dc/elements/1.1/"
   xmlns:cc="http://creativecommons.org/ns#"
   xmlns:rdf="http://www.w3.org/1999/02/22-rdf-syntax-ns#"
   xmlns:svg="http://www.w3.org/2000/svg"
   xmlns="http://www.w3.org/2000/svg"
   version="1.1"
   id="svg10"
   width="737.32697"
   height="555.49384"
   viewBox="0 0 737.32697 555.49384">
  <metadata
     id="metadata16">
    <rdf:RDF>
      <cc:Work
         rdf:about="">
        <dc:format>image/svg+xml</dc:format>
        <dc:type
           rdf:resource="http://purl.org/dc/dcmitype/StillImage" />
        <dc:title></dc:title>
      </cc:Work>
    </rdf:RDF>
  </metadata>
  <defs
     id="defs14" />
  <g
     id="g18"
     transform="translate(135.15273,-266.27115)">
    <g
       id="g44"
       transform="translate(27.548085,292.6984)">
      <g
         id="g52">
        <path
           style="fill:#ed7400;stroke-width:0.32"
           d="M 110.88192,528.60441 C 104.46152,527.22944 90.167469,519.55228 82.081923,513.13632 67.39073,501.47865 58.332807,486.88207 54.73442,469.06659 52.458337,457.79775 52.580452,443.32668 55.070026,429.29628 65.257751,371.88169 117.83841,293.42036 188.08192,230.81471 c 3.74,-3.33333 6.8,-6.16231 6.8,-6.28662 0,-0.39072 -6.1783,-16.1979 -9.20534,-23.55182 C 155.59539,127.89635 120.96613,69.54132 82.76328,27.553293 78.568461,22.942848 77.129498,20.77024 77.124925,19.040266 c -0.0038,-1.428244 0.465974,-1.904 1.879968,-1.904 2.654048,0 5.769145,2.586048 16.45126,13.657283 44.852007,46.485836 83.692807,104.583931 114.201547,170.822721 1.86444,4.048 3.54224,7.36 3.72841,7.36 0.18615,0 2.97488,-2.17041 6.19715,-4.82315 19.0138,-15.65312 38.82666,-30.15761 66.19376,-48.4588 12.38951,-8.28522 12.38951,-8.28522 12.23149,-11.74163 -0.26688,-5.8388 1.20307,-9.72555 5.18368,-13.70615 3.58406,-3.58408 7.56483,-5.26081 12.48973,-5.26081 3.70649,0 7.90214,1.30922 10.36316,3.23375 0.41972,0.32823 0.95245,0.59679 1.18381,0.59679 0.23139,0 4.27997,-2.3515 8.99687,-5.22555 4.71689,-2.87406 9.61225,-5.83777 10.87856,-6.58603 3.18486,-1.88188 3.1087,-1.68371 1.92217,-5.00261 -1.47453,-4.12437 -1.53369,-11.63555 -0.12342,-15.665812 4.62797,-13.225629 18.62585,-19.946243 31.64688,-15.19416 4.28477,1.563747 7.77929,4.12912 11.24022,8.251575 0.88771,1.057417 0.88771,1.057417 3.37734,-0.32 13.8201,-7.64619 18.58279,-10.399684 18.58813,-10.746542 0.004,-0.225017 -0.42441,-1.26231 -0.95081,-2.305091 -2.56532,-5.081837 -3.59767,-13.084333 -2.43085,-18.842826 2.46073,-12.144266 11.07616,-21.315854 23.06793,-24.557086 3.74301,-1.011686 12.20826,-0.846461 16,0.312295 7.66468,2.342316 13.32288,6.581312 17.6752,13.241834 1.65347,2.530342 2.37159,3.069753 3.1408,2.359164 0.1672,-0.154457 6.028,-3.189744 13.024,-6.745078 6.996,-3.555338 12.72,-6.500128 12.72,-6.543984 0,-0.04386 -0.58829,-1.436119 -1.30733,-3.093914 -10.59504,-24.4280906 3.87684,-52.329918 29.94733,-57.738539 20.39779,-4.231756 41.31552,7.884301 47.95242,27.7752108 2.70995,8.1218012 2.70928,18.2663032 -0.003,26.3742782 -4.70624,14.075124 -16.58868,24.571924 -31.48362,27.812283 -3.80099,0.826893 -12.49126,0.827312 -16.29021,6.4e-4 -9.99014,-2.17352 -18.5734,-7.435085 -24.71036,-15.147502 -0.87943,-1.106841 -1.72516,-2.01256 -1.87799,-2.01256 -0.24982,0 -26.8239,14.570209 -27.12717,14.87347 -0.0694,0.06945 0.12368,1.514477 0.42919,3.211177 2.87411,15.962484 -6.96653,31.38955 -22.79824,35.740555 -3.61312,0.992986 -11.92851,0.992986 -15.54163,0 -4.62547,-1.271216 -9.02586,-3.635648 -12.8392,-6.898822 -2.22762,-1.906237 -0.66669,-2.524295 -13.76634,5.450845 -11.25014,6.849133 -10.73113,6.441405 -10.39725,8.168307 0.50058,2.589222 0.33258,7.359672 -0.35372,10.043282 -3.68404,14.4054 -18.59805,22.25487 -32.44256,17.07498 -1.44829,-0.54188 -3.20951,-1.50103 -5.84829,-3.18494 -0.80458,-0.51344 -0.9783,-0.40624 -15.66954,9.66862 -8.36774,5.73836 -8.36774,5.73836 -8.50048,9.63545 -0.25363,7.44482 -3.6608,12.84809 -10.0118,15.87718 -3.9458,1.88192 -9.81139,2.17162 -13.76,0.67958 -1.056,-0.39902 -2.208,-0.79216 -2.56,-0.87365 -0.45674,-0.10573 -2.42695,1.20062 -6.88,4.56172 -28.63117,21.61048 -52.65635,41.93814 -73.03654,61.79615 -5.03652,4.90749 -5.03652,4.90749 -4.44048,6.4218 10.67945,27.13166 15.48169,40.56042 21.48307,60.07431 11.85968,38.56265 19.14752,75.94781 17.60252,90.2976 -1.58771,14.74643 -10.13926,28.00278 -20.85699,32.33187 -6.78624,2.74109 -17.21436,1.66279 -19.48739,-2.01504 -1.67149,-2.70454 -0.30829,-5.32297 4.15776,-7.98637 4.28045,-2.55267 7.74826,-7.4038 9.0272,-12.62806 0.74314,-3.03571 0.56074,-16.24512 -0.32038,-23.2 -3.60813,-28.47971 -13.03619,-66.53956 -26.96835,-108.86783 -1.75018,-5.3173 -3.31626,-9.75072 -3.4802,-9.85204 -0.16396,-0.10133 -1.14764,0.7212 -2.18598,1.82782 -7.19814,7.67144 -28.53424,32.48644 -28.53424,33.18681 0,0.17809 3.68608,0.3424 9.04,0.40297 8.60819,0.0974 9.1031,0.13602 10.36102,0.80889 6.1672,3.29884 6.14317,12.08714 -0.041,15.01072 -1.6,0.75642 -1.6,0.75642 -16.8,0.7639 -8.36,0.004 -15.51616,0.0923 -15.90262,0.19591 -1.17872,0.31606 -21.53738,28.22358 -21.53738,29.52329 0,0.24349 7.80416,0.37092 26.48,0.43239 26.48,0.0872 26.48,0.0872 28.16138,1.01878 5.87968,3.25776 5.70035,11.72756 -0.31172,14.72349 -1.65532,0.8249 -1.65532,0.8249 -33.38291,0.8249 -29.81606,0 -31.75718,0.0337 -32.2193,0.56 -2.34586,2.67149 -16.90286,29.9984 -16.40727,30.80029 0.12991,0.2102 13.92644,0.31971 40.27588,0.31971 40.07828,0 40.07828,0 41.7336,0.82489 6.01207,2.99594 6.1914,11.46573 0.31172,14.72349 -1.68138,0.93162 -1.68138,0.93162 -45.77956,1.01607 -44.09819,0.0845 -44.09819,0.0845 -44.52541,1.12 -3.793655,9.19555 -8.187969,25.89763 -9.744042,37.03555 -4.861238,34.79527 6.073853,64.29315 29.645702,79.97053 4.16155,2.76781 5.17338,5.14752 3.63188,8.54183 -2.11982,4.66777 -8.29782,6.84032 -15.22995,5.35577 z"
           id="path48" />
        <path
           style="fill:#534e4b;stroke-width:0.32"
           d="m -146.26336,307.22207 c -9.2696,-1.5616 -14.28587,-5.42256 -16.0141,-12.32579 -0.61584,-2.45995 -0.54595,-10.88038 0.11953,-14.4 1.33978,-7.08589 15.15276,-66.11361 16.23884,-69.39428 5.13432,-15.50903 12.33183,-22.31574 26.3461,-24.91561 3.63682,-0.67469 85.776353,-1.05052 93.016334,-0.4256 16.208454,1.39904 22.4021433,9.02841 20.1457498,24.81548 -0.3537792,2.47525 -9.8627968,45.02229 -10.1196318,45.27916 -0.08845,0.0885 -24.160831,0.23284 -53.494178,0.32084 -53.333354,0.16 -53.333354,0.16 -56.282994,12.96 -4.23448,18.3756 -4.36597,20.34338 -1.47068,22.00869 1.84882,1.0634 6.16328,1.17997 43.620318,1.17853 37.535701,-10e-4 47.237304,-0.20394 53.169387,-1.10982 5.663562,-0.86489 6.350611,-0.92028 6.350611,-0.51206 0,0.20596 -1.538553,4.11403 -3.419008,8.68459 -3.419004,8.31008 -3.419004,8.31008 -59.599998,8.27728 -43.97004,-0.0256 -56.70813,-0.12164 -58.60628,-0.44141 z m 99.863143,-67.4458 c 0.167277,-0.396 1.856189,-7.344 3.753139,-15.44 4.626457,-19.74525 4.65799,-21.20518 0.488477,-22.61609 -1.626131,-0.55027 -59.358989,-0.79113 -62.446699,-0.26053 -4.81877,0.82807 -7.25628,3.59664 -8.32413,9.45467 -0.19069,1.04607 -1.73633,7.89889 -3.43475,15.22848 -1.69843,7.32959 -2.99939,13.5576 -2.89101,13.84 0.17924,0.46711 3.46381,0.51347 36.373934,0.51347 36.176904,0 36.176904,0 36.481039,-0.72 z m 41.6021427,67.61185 c 0,-0.16948 0.3047744,-1.06948 0.67728,-2 5.1389599,-12.83714 5.814755,-15.61673 21.6898463,-89.21185 17.973583,-83.32349 17.180885,-79.36052 17.741487,-88.69569 0.371386,-6.18431 0.371386,-6.18431 19.171385,-6.26687 18.8,-0.0826 18.8,-0.0826 18.8,0.68903 0,0.42437 -7.763594,36.60552 -17.252432,80.40256 -21.042559,97.12483 -20.082889,92.38608 -20.419702,100.83098 -0.181869,4.56 -0.181869,4.56 -20.294866,4.56 -12.6798561,0 -20.1129983,-0.11389 -20.1129983,-0.30816 z m 63.0399983,-0.004 c 0,-0.17143 0.446906,-1.43143 0.99312,-2.8 4.651408,-11.65442 5.211363,-13.74545 14.843651,-55.43054 10.321644,-44.66837 11.243305,-49.30896 11.634102,-58.57779 0.209126,-4.96 0.209126,-4.96 17.790363,-5.04276 9.66968,-0.0455 17.69553,0.0315 17.83521,0.17121 0.13969,0.13969 -4.84139,22.78493 -11.06907,50.32277 -13.295825,58.79208 -13.939265,61.85448 -13.948871,66.38879 -0.01226,5.77977 1.80919,5.28 -19.243078,5.28 -12.00801,0 -18.835427,-0.11296 -18.835427,-0.31168 z m 207.359996,0.0314 c 0,-0.15408 0.34038,-1.05408 0.75641,-2 1.20887,-2.74845 4.64644,-12.44354 5.68388,-16.03038 1.37552,-4.75573 17.74195,-75.61672 18.86742,-81.68944 1.61968,-8.73915 2.21229,-13.44133 2.21229,-17.55355 0,-2.62101 0.12713,-4.04559 0.384,-4.30245 0.57702,-0.57701 35.09132,-0.55275 35.31296,0.0248 0.0863,0.22485 -5.09517,23.66085 -11.51434,52.08 -12.54921,55.5583 -13.27216,59.05659 -13.53846,65.51118 -0.17491,4.24 -0.17491,4.24 -19.16954,4.24 -10.65014,0 -18.99462,-0.12307 -18.99462,-0.28019 z m 70.4,-0.19338 c 0,-0.26045 0.5776,-1.92339 1.28358,-3.69542 3.01472,-7.56711 5.15584,-15.98613 14.0768,-55.35101 3.88883,-17.16 7.70285,-33.86401 8.47562,-37.12001 2.22528,-9.37628 3.11027,-14.48814 3.49027,-20.16 0.35373,-5.28 0.35373,-5.28 15.91203,-5.36302 12.20793,-0.0651 15.62633,0.004 15.87417,0.32 0.20948,0.26728 0.16612,1.75032 -0.12873,4.40302 -0.24455,2.2 -0.40394,4.50031 -0.35418,5.11179 0.0904,1.11179 0.0904,1.11179 1.80426,-1.20478 3.12617,-4.22561 6.32541,-6.41529 11.40617,-7.80685 2.4673,-0.67576 3.22285,-0.70559 20.86144,-0.82371 18.30141,-0.12256 18.30141,-0.12256 19.07021,1.1005 1.75735,2.79577 6.62835,11.84698 6.62835,12.31668 0,0.2794 -0.23795,0.7055 -0.5288,0.94688 -0.29084,0.24138 -1.66588,1.84295 -3.05561,3.55904 -3.4464,4.25572 -3.11555,4.13658 -9.53559,3.43387 -13.31881,-1.45782 -39.28995,-1.77498 -42.60268,-0.52026 -2.9945,1.13419 -5.29728,4.04967 -6.48218,8.20684 -0.2759,0.968 -3.53629,15.36801 -7.24531,32.00001 -3.70902,16.632 -7.37251,32.976 -8.14102,36.32 -2.15591,9.38052 -3.28295,17.50611 -3.36221,24.24 -0.006,0.52688 -1.11386,0.56 -18.72659,0.56 -16.31367,0 -18.72,-0.0609 -18.72,-0.47357 z m -228.8,-146.94723 c -14.04256,-2.34802 -19.603702,-19.71181 -9.571946,-29.88689 8.370126,-8.4897 22.735946,-6.15007 28.169996,4.5878 6.39065,12.62813 -4.63985,27.633 -18.59805,25.29909 z"
           id="path46" />
      </g>
    </g>
  </g>
</svg>
