<?xml version="1.0" encoding="UTF-8" standalone="no"?>
<!DOCTYPE svg PUBLIC "-//W3C//DTD SVG 1.1//EN" "http://www.w3.org/Graphics/SVG/1.1/DTD/svg11.dtd">
<svg width="100%" height="100%" viewBox="0 0 232 80" version="1.1" xmlns="http://www.w3.org/2000/svg" xmlns:xlink="http://www.w3.org/1999/xlink" xml:space="preserve" xmlns:serif="http://www.serif.com/" style="fill-rule:evenodd;clip-rule:evenodd;">
    <g id="g4179" transform="matrix(1,0,0,1,-2.57133,-3.43794)">
        <g transform="matrix(1,0,0,1,-4.00356,17.4824)">
            <path d="M7.004,50.17L7.004,0.062L22.146,0.062L31.238,34.242L40.227,0.062L55.403,0.062L55.403,50.17L46.003,50.17L46.003,10.726L36.057,50.17L26.316,50.17L16.404,10.726L16.404,50.17L7.004,50.17Z" style="fill:rgb(26,28,26);fill-rule:nonzero;"/>
            <path d="M94.866,31.747L94.889,23.304L110.569,23.304L110.569,43.265C108.45,45.316 105.379,47.122 101.357,48.683C97.335,50.244 93.262,51.024 89.138,51.024C83.897,51.024 79.328,49.925 75.432,47.726C71.536,45.527 68.607,42.382 66.648,38.292C64.688,34.202 63.708,29.753 63.708,24.945C63.708,19.727 64.802,15.09 66.99,11.034C69.177,6.978 72.379,3.868 76.594,1.703C79.807,0.039 83.806,-0.792 88.591,-0.792C94.812,-0.792 103.169,3.121 103.169,3.121L95.889,9.991C95.889,9.991 91.508,7.855 88.591,7.855C84.171,7.855 80.656,9.257 78.047,12.059C75.438,14.862 74.133,19.021 74.133,24.535C74.133,30.482 75.455,34.943 78.098,37.916C80.741,40.89 84.205,42.377 88.489,42.377C90.608,42.377 92.733,41.961 94.863,41.129C96.994,40.297 98.822,39.289 100.349,38.104L100.349,31.747L94.866,31.747Z" style="fill:rgb(26,28,26);fill-rule:nonzero;"/>
            <path d="M152.849,50.17L143.244,50.17L143.244,31.644C143.244,27.725 143.039,25.19 142.629,24.039C142.219,22.889 141.553,21.994 140.63,21.356C139.707,20.718 138.596,20.399 137.297,20.399C135.634,20.399 134.141,20.855 132.82,21.766C131.498,22.678 130.592,23.885 130.102,25.389C129.612,26.893 129.368,29.673 129.368,33.729L129.368,50.17L119.763,50.17L119.763,13.871L128.684,13.871L128.684,19.203C131.851,15.101 135.839,13.051 140.647,13.051C142.766,13.051 144.703,13.432 146.457,14.196C148.212,14.959 149.539,15.933 150.439,17.118C151.339,18.303 151.966,19.647 152.319,21.151C152.672,22.655 152.849,24.808 152.849,27.611L152.849,50.17Z" style="fill:rgb(26,28,26);fill-rule:nonzero;"/>
            <path d="M162.59,8.949L162.59,0.062L172.195,0.062L172.195,8.949L162.59,8.949ZM162.59,50.17L162.59,13.871L172.195,13.871L172.195,50.17L162.59,50.17Z" style="fill:rgb(26,28,26);fill-rule:nonzero;"/>
            <path d="M177.834,13.871L183.166,13.871L183.166,11.136C183.166,8.083 183.491,5.804 184.14,4.301C184.79,2.797 185.986,1.572 187.729,0.626C189.473,-0.319 191.677,-0.792 194.343,-0.792C197.078,-0.792 199.755,-0.382 202.375,0.438L201.077,7.137C199.55,6.773 198.08,6.591 196.667,6.591C195.277,6.591 194.28,6.915 193.677,7.565C193.073,8.214 192.771,9.462 192.771,11.307L192.771,13.871L199.949,13.871L199.949,21.425L192.771,21.425L192.771,50.17L183.166,50.17L183.166,21.425L177.834,21.425L177.834,13.871Z" style="fill:rgb(26,28,26);fill-rule:nonzero;"/>
            <path d="M200.803,13.871L211.023,13.871L219.704,39.642L228.181,13.871L238.127,13.871L225.31,48.802L223.02,55.126C222.177,57.245 221.374,58.863 220.61,59.979C219.847,61.096 218.97,62.002 217.978,62.697C216.987,63.392 215.768,63.933 214.321,64.32C212.874,64.707 211.239,64.901 209.416,64.901C207.571,64.901 205.759,64.707 203.982,64.32L203.127,56.801C204.631,57.097 205.987,57.245 207.195,57.245C209.428,57.245 211.08,56.59 212.151,55.28C213.222,53.969 214.042,52.3 214.612,50.272L200.803,13.871Z" style="fill:rgb(26,28,26);fill-rule:nonzero;"/>
        </g>
        <g id="ellipse8161" transform="matrix(1,0,0,1,-2,6)">
            <path d="M79.955,26.157Z" style="fill:rgb(51,51,51);fill-opacity:0.96;stroke:white;stroke-width:0.78px;"/>
        </g>
        <g transform="matrix(0.850731,0,0,1.02684,19.3386,1.38969)">
            <rect x="82.3" y="38.322" width="27.9" height="8.467" style="fill:rgb(26,28,26);"/>
        </g>
        <g id="g8171" transform="matrix(-0.282039,0,0,0.282039,129.979,-14.721)">
            <g id="rect8173" transform="matrix(0.912195,0.409756,-0.409756,0.912195,0,0)">
                <rect x="151.738" y="6.821" width="15.036" height="131.925" style="fill:rgb(26,28,26);stroke:white;stroke-width:0.78px;"/>
            </g>
            <g id="rect8175" transform="matrix(0.900702,0.434438,-0.402871,0.915257,0,0)">
                <rect x="144.088" y="33.443" width="28.964" height="86.68" style="fill:rgb(26,28,26);stroke:white;stroke-width:0.98px;"/>
            </g>
            <circle id="circle8177" cx="143.08" cy="132.429" r="22.553" style="fill:rgb(26,28,26);stroke:white;stroke-width:0.78px;"/>
        </g>
    </g>
</svg>
