<svg xmlns="http://www.w3.org/2000/svg" xmlns:xlink="http://www.w3.org/1999/xlink" width="100" height="100" viewBox="0 0 100 100"><circle stroke="none" fill="#ffffff" r="48%" cx="50%" cy="50%"></circle><g transform="translate(50 50) scale(0.69 0.69) rotate(0) translate(-50 -50)" style="fill:#b5314c"><svg fill="#b5314c" xmlns="http://www.w3.org/2000/svg" viewBox="0 0 64 64" x="0px" y="0px"><title>ecosystem cycle</title><g><path d="M55.65,25.52h-4a.83.83,0,0,1-.77-.55q-.25-.7-.55-1.37a.82.82,0,0,1,.16-.92l2.83-2.83a2.82,2.82,0,0,0,0-4l-5.18-5.18a2.88,2.88,0,0,0-4,0l-2.83,2.83a.81.81,0,0,1-.92.16q-.67-.3-1.37-.55a.82.82,0,0,1-.55-.77v-4a2.82,2.82,0,0,0-2.82-2.82H28.34a2.82,2.82,0,0,0-2.82,2.82v4.37a.8.8,0,0,1-.49.75q-.57.23-1.12.5a.81.81,0,0,1-.93-.16l-3.12-3.12a2.89,2.89,0,0,0-4,0l-5.18,5.18a2.82,2.82,0,0,0,0,4l3.47,3.46a.81.81,0,0,1,.18.88c-.1.25-.2.51-.29.77a.82.82,0,0,1-.77.55H8.35a2.82,2.82,0,0,0-2.82,2.82v7.31a2.82,2.82,0,0,0,2.82,2.82h5.28a.82.82,0,0,1,.76.52l.21.49a.82.82,0,0,1-.16.92l-3.74,3.74a2.82,2.82,0,0,0,0,4l5.18,5.18a2.89,2.89,0,0,0,4,0l3.74-3.74a.82.82,0,0,1,.92-.16l.49.21a.82.82,0,0,1,.52.76v5.28a2.82,2.82,0,0,0,2.82,2.82h7.31a2.82,2.82,0,0,0,2.82-2.82V50.72A.82.82,0,0,1,39,50l.77-.29a.81.81,0,0,1,.88.18l3.46,3.46a2.89,2.89,0,0,0,4,0l5.18-5.18a2.82,2.82,0,0,0,0-4L50.19,41a.81.81,0,0,1-.16-.93c.18-.37.35-.74.5-1.12a.8.8,0,0,1,.75-.49h4.37a2.82,2.82,0,0,0,2.82-2.82V28.34A2.82,2.82,0,0,0,55.65,25.52Zm.82,10.13a.82.82,0,0,1-.82.82H51.28a2.8,2.8,0,0,0-2.6,1.73c-.14.34-.29.68-.45,1a2.81,2.81,0,0,0,.54,3.22l3.12,3.12a.82.82,0,0,1,0,1.16l-5.18,5.18a.84.84,0,0,1-1.16,0l-3.46-3.46a2.81,2.81,0,0,0-3-.62l-.69.26a2.82,2.82,0,0,0-1.88,2.65v4.93a.82.82,0,0,1-.82.82H28.34a.82.82,0,0,1-.82-.82V50.37a2.82,2.82,0,0,0-1.76-2.61l-.44-.19a2.88,2.88,0,0,0-1.16-.25,2.8,2.8,0,0,0-2,.82l-3.74,3.74a.84.84,0,0,1-1.16,0l-5.18-5.18a.82.82,0,0,1,0-1.16l3.74-3.74a2.81,2.81,0,0,0,.58-3.15l-.19-.44a2.82,2.82,0,0,0-2.61-1.76H8.35a.82.82,0,0,1-.82-.82V28.34a.82.82,0,0,1,.82-.82h4.93a2.83,2.83,0,0,0,2.65-1.88q.12-.35.26-.69a2.81,2.81,0,0,0-.62-3l-3.46-3.46a.82.82,0,0,1,0-1.16l5.18-5.18a.84.84,0,0,1,1.16,0l3.12,3.12a2.81,2.81,0,0,0,3.22.54q.5-.24,1-.45a2.8,2.8,0,0,0,1.73-2.6V8.35a.82.82,0,0,1,.82-.82h7.31a.82.82,0,0,1,.82.82v4A2.83,2.83,0,0,0,38.36,15q.62.22,1.23.49a2.81,2.81,0,0,0,3.14-.58l2.83-2.83a.84.84,0,0,1,1.16,0l5.18,5.18a.82.82,0,0,1,0,1.16l-2.83,2.83a2.8,2.8,0,0,0-.58,3.14q.27.6.49,1.22a2.83,2.83,0,0,0,2.66,1.88h4a.82.82,0,0,1,.82.82ZM39.35,23.84l6.94,3.93L43.68,29.3A12,12,0,1,1,32,20a1,1,0,0,1,0,2,10,10,0,1,0,9.85,8.36l-2.44,1.43Z"></path></g></svg></g></svg>