<svg xmlns="http://www.w3.org/2000/svg" xmlns:xlink="http://www.w3.org/1999/xlink" width="100" height="100" viewBox="0 0 100 100"><circle stroke="none" fill="#ffffff" r="48%" cx="50%" cy="50%"></circle><g transform="translate(50 50) scale(0.69 0.69) rotate(0) translate(-50 -50)" style="fill:#b5314c"><svg fill="#b5314c" xmlns="http://www.w3.org/2000/svg" xmlns:xlink="http://www.w3.org/1999/xlink" version="1.1" x="0px" y="0px" viewBox="0 0 100 100" style="enable-background:new 0 0 100 100;" xml:space="preserve"><circle cx="69.924736" cy="70.2902527" r="6.8631139"></circle><circle cx="74.7690887" cy="60.7075424" r="3.1281385"></circle><circle cx="79.8876419" cy="66.3632202" r="3.128144"></circle><path d="M26.719986,38.6340103c0.4163151,0,0.8225231-0.0425949,1.2158775-0.1207657  c0.3852539,0.8434105,0.9012108,1.741272,1.5925789,2.6639099c1.8285351,2.4402199,4.9096451,3.992321,6.5520973,4.690815  l-2.0574722,0.7576141l0.1841393,0.4983749l2.9911232-1.1021767l-1.3166618-2.903492l-0.4840279,0.2190628l0.9351845,2.0612106  c-1.5826836-0.6684074-4.6084137-2.1761436-6.3796444-4.5397072c-0.6403484-0.8545761-1.1221981-1.6898842-1.4866295-2.4784088  c2.576601-0.7549133,4.4599133-3.1321945,4.4599133-5.952919c0-3.427721-2.7787323-6.2064552-6.2064781-6.2064552  s-6.2064571,2.7787342-6.2064571,6.2064552C20.5135288,35.8552742,23.2922421,38.6340103,26.719986,38.6340103z"></path><path d="M20.0011806,51.8570671c1.7869778,0.5300179,4.1327858,0.9433975,7.1127434,0.9433975  c4.7434998,0,7.6947498-0.5593071,9.0901661-0.914238l-1.1605797,1.8308258l0.4490585,0.2839737l1.7060852-2.6927452  l-2.8098564-1.5061798l-0.251358,0.4680901l2.017231,1.0807724c-1.3270531,0.3456841-4.2484093,0.918663-9.0407467,0.918663  c-2.890686,0-5.1770515-0.4064026-6.9199219-0.9231987c0.2045288-0.6155968,0.3195267-1.2719955,0.3195267-1.9562798  c0-3.4277229-2.7787342-6.2064552-6.2064781-6.2064552s-6.2064791,2.7787323-6.2064791,6.2064552  c0,3.4277458,2.7787342,6.2064819,6.2064791,6.2064819C16.8576908,55.5966301,19.0467491,54.056797,20.0011806,51.8570671z"></path><circle cx="73.735466" cy="27.6378078" r="3.8107316"></circle><circle cx="71.4276047" cy="36.2726059" r="3.8107262"></circle><circle cx="79.8876419" cy="33.842514" r="3.8107262"></circle><path d="M36.1108856,57.450695l0.0636139,0.5274887l2.2517624-0.273735  c-1.0316086,1.2140656-3.2235603,3.4884415-6.094677,4.7575417c-1.4926376,0.6597023-2.9840641,1.0536842-4.3551998,1.2806969  c-0.178112-3.2681236-2.8766689-5.8653946-6.1892643-5.8653946c-3.4277439,0-6.2064781,2.7787323-6.2064781,6.2064781  c0,3.427742,2.7787342,6.2064819,6.2064781,6.2064819c3.3625126,0,6.0937271-2.6757507,6.1967163-6.0132751  c1.4334087-0.2311783,2.9969139-0.6378403,4.5623627-1.3297691c2.9321365-1.2958603,5.1709824-3.5965271,6.2474518-4.85569  l0.1046295,2.1851273l0.5306664-0.0260048l-0.1531868-3.1840553L36.1108856,57.450695z"></path><path d="M64.1240311,42.2710114l-2.0121117-0.8723297c1.1608429-0.4181099,2.9487038-1.1683578,4.6159782-2.2937965  c1.9015427,2.3166046,4.7858124,3.7973175,8.0097198,3.7973175c5.7123795,0,10.3596268-4.6474228,10.3596268-10.3599777  c0-5.7123814-4.6472473-10.3598042-10.3596268-10.3598042c-5.7123871,0-10.3599777,4.6474228-10.3599777,10.3598042  c0,2.2978783,0.7530518,4.4225922,2.0238571,6.1426086c-1.63517,1.0986328-3.3900299,1.8284492-4.5146904,2.2306824  l1.0492783-2.0046616l-0.4709854-0.2458725l-1.477623,2.8245926l2.9247704,1.2686882L64.1240311,42.2710114z M74.7376175,22.7132568  c5.4196548,0,9.8287888,4.4093075,9.8287888,9.828968c0,5.4198341-4.4091339,9.8291397-9.8287888,9.8291397  c-5.4196625,0-9.8291397-4.4093056-9.8291397-9.8291397C64.9084778,27.1225643,69.317955,22.7132568,74.7376175,22.7132568z"></path><path d="M56.6524086,63.3456612l1.3873367,1.8224678c-1.3592567-0.2380295-3.8739128-0.9108505-5.4414558-2.7493401  c-0.4395142-0.5155678-0.8167114-1.0535088-1.1401901-1.6050835c6.1469688-0.6880646,10.9263878-5.9001503,10.9263878-12.2308083  c0-6.79879-5.5115013-12.3102913-12.3102913-12.3102913c-6.7987671,0-12.3102722,5.5115013-12.3102722,12.3102913  c0,6.7987709,5.5115051,12.3102722,12.3102722,12.3102722c0.271122,0,0.5393028-0.011879,0.8060646-0.0291367  c0.3647766,0.653286,0.7961464,1.291172,1.3143692,1.8989716c1.6388664,1.9227333,4.2159882,2.6477089,5.6641731,2.9126549  l-1.8136749,1.1818542l0.2905617,0.4448318l2.6703224-1.7409973l-1.9305496-2.5370941L56.6524086,63.3456612z"></path><path d="M49.9999123,5C25.1868725,5,5,25.1868725,5,50.0000877C5,74.8129578,25.1868725,95,49.9999123,95  S95,74.8129578,95,50.0000877C95,25.1868725,74.8129578,5,49.9999123,5z M49.9999123,94.469162  c-24.520319,0-44.4690742-19.9485855-44.4690742-44.4690742S25.4795933,5.530838,49.9999123,5.530838  S94.469162,25.4795933,94.469162,50.0000877S74.5202332,94.469162,49.9999123,94.469162z"></path><path d="M72.4490662,54.8177147c-6.9741592,0-12.6481781,5.6740227-12.6481781,12.6485252  c0,6.9741592,5.6740189,12.6481781,12.6481781,12.6481781s12.6481781-5.6740189,12.6481781-12.6481781  C85.0972443,60.4917374,79.4232254,54.8177147,72.4490662,54.8177147z M72.4490662,79.58358  c-6.6814346,0-12.1173401-5.4358978-12.1173401-12.1173401c0-6.6817818,5.4359055-12.1176872,12.1173401-12.1176872  c6.6814423,0,12.1173401,5.4359055,12.1173401,12.1176872C84.5664062,74.1476822,79.1305084,79.58358,72.4490662,79.58358z"></path></svg></g></svg>