<svg xmlns="http://www.w3.org/2000/svg" xmlns:xlink="http://www.w3.org/1999/xlink" width="100" height="100" viewBox="0 0 100 100"><circle stroke="none" fill="#ffffff" r="48%" cx="50%" cy="50%"></circle><g transform="translate(50 50) scale(0.69 0.69) rotate(0) translate(-50 -50)" style="fill:#b5314c"><svg fill="#b5314c" xmlns="http://www.w3.org/2000/svg" data-name="Layer 1" viewBox="0 0 64 64" x="0px" y="0px"><title>Untitled-1</title><path d="M63.6,11a.91.91,0,0,0-.57-.19,1,1,0,0,0-.29,0A104.9,104.9,0,0,1,32,15.49,105,105,0,0,1,1.25,10.8a1,1,0,0,0-.28,0A.94.94,0,0,0,.39,11a1,1,0,0,0-.39.78V52.27A1,1,0,0,0,.39,53a1,1,0,0,0,.58.2,1.26,1.26,0,0,0,.28,0A104.63,104.63,0,0,1,32,48.51,104.68,104.68,0,0,1,62.75,53.2a1.26,1.26,0,0,0,.28,0,.92.92,0,0,0,.57-.2.94.94,0,0,0,.4-.77V11.73A1,1,0,0,0,63.6,11ZM54.72,49.08c-.53-.12-1.08-.23-1.61-.33L34,27.5,24,38.89l7.78,7.68-1.38,0L12.83,29.28,2.68,39.47V14A98.19,98.19,0,0,0,32,18.43,98.28,98.28,0,0,0,61.32,14V32.41l-6.29-7L44.61,37.83Z"></path><path d="M22.26,21.45a4,4,0,1,0,4,4A4,4,0,0,0,22.26,21.45Z"></path></svg></g></svg>