<svg xmlns="http://www.w3.org/2000/svg" xmlns:xlink="http://www.w3.org/1999/xlink" width="100" height="100" viewBox="0 0 100 100"><circle cx="50%" cy="50%" r="48%" fill="#fff" stroke="none"/><g transform="translate(50 50) scale(0.69 0.69) rotate(0) translate(-50 -50)" style="fill:#b5314c"><svg xmlns="http://www.w3.org/2000/svg" x="0" y="0" fill="#b5314c" viewBox="0 0 64 64"><title>Artboard 25</title><path d="M19.61,22.79,28,16.3l8.38,7.45a1,1,0,0,0,1.41-.09,1,1,0,0,0-.09-1.41l-3-2.7L38,17.23,45.4,22.8a1,1,0,0,0,.6.2,1,1,0,0,0,.8-.4,1,1,0,0,0-.2-1.4l-8-6a1,1,0,0,0-1.17,0l-4.35,3L29,14.55V11.72L34.32,10A1,1,0,0,0,35,9.07a1,1,0,0,0-.55-1l-6-3A1,1,0,0,0,27,6v8.51l-8.61,6.7a1,1,0,0,0,1.22,1.58ZM29,7.62l2.39,1.19L29,9.61Z"/><path d="M48.11,46.85a8,8,0,1,0-8.22,0A12.56,12.56,0,0,0,32,53.33a12.56,12.56,0,0,0-7.89-6.48,8,8,0,1,0-8.22,0C10.73,48.38,7,52.68,7,57.75a1,1,0,0,0,1,1H56a1,1,0,0,0,1-1C57,52.68,53.27,48.38,48.11,46.85ZM38,40a6,6,0,1,1,6,6A6,6,0,0,1,38,40ZM14,40a6,6,0,1,1,6,6A6,6,0,0,1,14,40ZM9.06,56.75c.58-4.77,5.27-8.5,10.94-8.5S30.36,52,30.94,56.75Zm24,0c.58-4.77,5.27-8.5,10.94-8.5S54.36,52,54.94,56.75Z"/><path d="M61,16h2a1,1,0,0,0,0-2H61a1,1,0,0,0,0,2Z"/><path d="M63,37a1,1,0,0,0-1,1v2a1,1,0,0,0,2,0V38A1,1,0,0,0,63,37Z"/><path d="M63,32a1,1,0,0,0-1,1v2a1,1,0,0,0,2,0V33A1,1,0,0,0,63,32Z"/><path d="M63,27a1,1,0,0,0-1,1v2a1,1,0,0,0,2,0V28A1,1,0,0,0,63,27Z"/><path d="M63,22a1,1,0,0,0-1,1v2a1,1,0,0,0,2,0V23A1,1,0,0,0,63,22Z"/><path d="M56,40H54a1,1,0,0,0,0,2h2a1,1,0,0,0,0-2Z"/><path d="M63,17a1,1,0,0,0-1,1v2a1,1,0,0,0,2,0V18A1,1,0,0,0,63,17Z"/><path d="M61,40H59a1,1,0,0,0,0,2h2a1,1,0,0,0,0-2Z"/><path d="M1,16H3a1,1,0,0,0,0-2H1a1,1,0,0,0,0,2Z"/><path d="M1,31a1,1,0,0,0,1-1V28a1,1,0,0,0-2,0v2A1,1,0,0,0,1,31Z"/><path d="M1,21a1,1,0,0,0,1-1V18a1,1,0,0,0-2,0v2A1,1,0,0,0,1,21Z"/><path d="M1,26a1,1,0,0,0,1-1V23a1,1,0,0,0-2,0v2A1,1,0,0,0,1,26Z"/><path d="M5,40H3a1,1,0,0,0,0,2H5a1,1,0,0,0,0-2Z"/><path d="M1,36a1,1,0,0,0,1-1V33a1,1,0,0,0-2,0v2A1,1,0,0,0,1,36Z"/><path d="M8,40a1,1,0,0,0,0,2h2a1,1,0,0,0,0-2Z"/><path d="M2,38a1,1,0,0,0-2,0v2a1,1,0,0,0,2,0Z"/><path d="M12.16,22.48a7,7,0,0,0,11.28,3.93,12,12,0,0,0,17.12,0,7,7,0,0,0,11.28-3.93A8,8,0,0,0,56.92,16H58a1,1,0,0,0,0-2H56.92a8,8,0,0,0-5.08-6.48A7,7,0,0,0,40.56,3.59a12,12,0,0,0-17.12,0A7,7,0,0,0,12.16,7.52,8,8,0,0,0,7.08,14H6a1,1,0,0,0,0,2H7.08A8,8,0,0,0,12.16,22.48ZM13.33,9.24,14,9.06,14,8.4a5,5,0,0,1,8.7-2.71l.78.88.74-.91a10,10,0,0,1,15.48,0l.74.91.78-.88A5,5,0,0,1,50,8.4l.08.66.63.18a6,6,0,0,1,0,11.52l-.63.18L50,21.6a5,5,0,0,1-8.7,2.71l-.78-.88-.74.9a10,10,0,0,1-15.48,0l-.74-.91-.78.88A5,5,0,0,1,14,21.6L14,20.94l-.63-.18a6,6,0,0,1,0-11.52Z"/></svg></g></svg>