<svg xmlns="http://www.w3.org/2000/svg" xmlns:xlink="http://www.w3.org/1999/xlink" width="100" height="100" viewBox="0 0 100 100"><circle stroke="none" fill="#ffffff" r="48%" cx="50%" cy="50%"></circle><g transform="translate(50 50) scale(0.69 0.69) rotate(0) translate(-50 -50)" style="fill:#b5314c"><svg fill="#b5314c" xmlns="http://www.w3.org/2000/svg" xmlns:xlink="http://www.w3.org/1999/xlink" version="1.1" x="0px" y="0px" viewBox="0 0 512 512" style="enable-background:new 0 0 512 512;" xml:space="preserve"><g><g><g><g><path d="M336,363h-40c-3.9,0-7-3.1-7-7s3.1-7,7-7h33v-73c0-40.3-32.7-73-73-73s-73,32.7-73,73v73h33c3.9,0,7,3.1,7,7s-3.1,7-7,7      h-40c-3.9,0-7-3.1-7-7v-80c0-48,39-87,87-87s87,39,87,87v80C343,359.9,339.9,363,336,363z"></path></g><g><path d="M216,493c-3.9,0-7-3.1-7-7V326c0-3.9,3.1-7,7-7s7,3.1,7,7v160C223,489.9,219.9,493,216,493z"></path></g><g><path d="M296,493c-3.9,0-7-3.1-7-7V326c0-3.9,3.1-7,7-7s7,3.1,7,7v160C303,489.9,299.9,493,296,493z"></path></g><g><path d="M256,493c-3.9,0-7-3.1-7-7v-80c0-3.9,3.1-7,7-7s7,3.1,7,7v80C263,489.9,259.9,493,256,493z"></path></g><g><path d="M256,203c-31.4,0-57-25.6-57-57s25.6-57,57-57s57,25.6,57,57S287.4,203,256,203z M256,103c-23.7,0-43,19.3-43,43      s19.3,43,43,43s43-19.3,43-43S279.7,103,256,103z"></path></g><g><path d="M146,133c-31.4,0-57-25.6-57-57s25.6-57,57-57s57,25.6,57,57S177.4,133,146,133z M146,33c-23.7,0-43,19.3-43,43      s19.3,43,43,43s43-19.3,43-43S169.7,33,146,33z"></path></g><g><path d="M366,133c-31.4,0-57-25.6-57-57s25.6-57,57-57s57,25.6,57,57S397.4,133,366,133z M366,33c-23.7,0-43,19.3-43,43      s19.3,43,43,43s43-19.3,43-43S389.7,33,366,33z"></path></g><g><g><path d="M61,379.3H26c-3.9,0-7-3.1-7-7v-70c0-42.5,34.5-77,77-77c3.9,0,7,3.1,7,7s-3.1,7-7,7c-34.7,0-63,28.3-63,63v63h28       c3.9,0,7,3.1,7,7S64.9,379.3,61,379.3z"></path></g><g><path d="M61,493c-3.9,0-7-3.1-7-7V346c0-3.9,3.1-7,7-7s7,3.1,7,7v140C68,489.9,64.9,493,61,493z"></path></g><g><path d="M131,493c-3.9,0-7-3.1-7-7V346c0-3.9,3.1-7,7-7c3.9,0,7,3.1,7,7v140C138,489.9,134.9,493,131,493z"></path></g><g><path d="M96,493c-3.9,0-7-3.1-7-7v-70c0-3.9,3.1-7,7-7s7,3.1,7,7v70C103,489.9,99.9,493,96,493z"></path></g><g><path d="M96,239.3c-28,0-50.8-22.8-50.8-50.8S68,137.8,96,137.8s50.8,22.8,50.8,50.8S124,239.3,96,239.3z M96,151.8       c-20.3,0-36.8,16.5-36.8,36.8s16.5,36.8,36.8,36.8s36.8-16.5,36.8-36.8S116.3,151.8,96,151.8z"></path></g></g><g><path d="M486,379.3h-35c-3.9,0-7-3.1-7-7s3.1-7,7-7h28v-63c0-34.7-28.3-63-63-63c-3.9,0-7-3.1-7-7s3.1-7,7-7      c42.5,0,77,34.5,77,77v70C493,376.1,489.9,379.3,486,379.3z"></path></g><g><path d="M381,493c-3.9,0-7-3.1-7-7V346c0-3.9,3.1-7,7-7s7,3.1,7,7v140C388,489.9,384.9,493,381,493z"></path></g><g><path d="M451,493c-3.9,0-7-3.1-7-7V346c0-3.9,3.1-7,7-7s7,3.1,7,7v140C458,489.9,454.9,493,451,493z"></path></g><g><path d="M416,493c-3.9,0-7-3.1-7-7v-70c0-3.9,3.1-7,7-7s7,3.1,7,7v70C423,489.9,419.9,493,416,493z"></path></g><g><path d="M416,239.3c-28,0-50.8-22.8-50.8-50.8s22.8-50.8,50.8-50.8s50.8,22.8,50.8,50.8S444,239.3,416,239.3z M416,151.8      c-20.3,0-36.8,16.5-36.8,36.8s16.5,36.8,36.8,36.8s36.8-16.5,36.8-36.8S436.3,151.8,416,151.8z"></path></g></g></g></g></svg></g></svg>