<svg xmlns="http://www.w3.org/2000/svg" xmlns:xlink="http://www.w3.org/1999/xlink" width="100" height="100" viewBox="0 0 100 100"><circle cx="50%" cy="50%" r="48%" fill="#fff" stroke="none"/><g transform="translate(50 50) scale(0.69 0.69) rotate(0) translate(-50 -50)" style="fill:#b5314c"><svg xmlns="http://www.w3.org/2000/svg" xmlns:xlink="http://www.w3.org/1999/xlink" x="0" y="0" fill="#b5314c" enable-background="new 0 0 100 100" version="1.1" viewBox="0 0 100 100" xml:space="preserve"><path d="M84.5,69.125V58c-0.006-1.936-1.564-3.494-3.5-3.5H51.5V30.875C56.31,30.15,60,26.012,60,21c0-5.522-4.477-10-10-10 s-10,4.478-10,10c0,5.012,3.69,9.15,8.5,9.875V54.5H19c-1.936,0.006-3.494,1.564-3.5,3.5v11.125C10.69,69.85,7,73.989,7,79 c0,5.523,4.477,10,10,10s10-4.477,10-10c0-5.011-3.69-9.15-8.5-9.875V58c0-0.136,0.053-0.254,0.148-0.352 C18.746,57.553,18.863,57.5,19,57.5h29.5v11.625C43.69,69.85,40,73.989,40,79c0,5.523,4.477,10,10,10s10-4.477,10-10 c0-5.011-3.69-9.15-8.5-9.875V57.5H81c0.136,0,0.254,0.053,0.352,0.148C81.447,57.746,81.5,57.864,81.5,58v11.125 C76.69,69.85,73,73.989,73,79c0,5.523,4.477,10,10,10s10-4.477,10-10C93,73.989,89.31,69.85,84.5,69.125z"/></svg></g></svg>