<svg xmlns="http://www.w3.org/2000/svg" xmlns:xlink="http://www.w3.org/1999/xlink" width="100" height="100" viewBox="0 0 100 100"><circle stroke="none" fill="#ffffff" r="48%" cx="50%" cy="50%"></circle><g transform="translate(50 50) scale(0.69 0.69) rotate(0) translate(-50 -50)" style="fill:#b5314c"><svg fill="#b5314c" xmlns:dc="http://purl.org/dc/elements/1.1/" xmlns:cc="http://creativecommons.org/ns#" xmlns:rdf="http://www.w3.org/1999/02/22-rdf-syntax-ns#" xmlns:svg="http://www.w3.org/2000/svg" xmlns="http://www.w3.org/2000/svg" xmlns:sodipodi="http://sodipodi.sourceforge.net/DTD/sodipodi-0.dtd" xmlns:inkscape="http://www.inkscape.org/namespaces/inkscape" viewBox="0 0 1151.2501 1151.2502" version="1.1" x="0px" y="0px"><g transform="translate(6515.2533,-1333.5502)"><path style="" d="m -6227.7533,2341.0505 0,-143.75 -143.75,0 -143.7501,0 0,-431.8752 0,-431.8751 431.8752,0 431.8751,0 0,143.75 0,143.7501 143.75,0 143.7501,0 0,431.8751 0,431.8751 -431.8752,0 -431.8751,0 0,-143.75 z m 773.7503,-287.8782 0,-341.6282 -340.8258,0.3705 c -187.4542,0.2037 -341.1373,0.6819 -341.518,1.0625 -0.3806,0.3807 -0.8002,153.9467 -0.9324,341.2578 l -0.2403,340.5656 341.7582,0 341.7583,0 0,-341.6282 z m -773.7503,-188.9969 0,-243.1251 243.1251,0 243.1251,0 0,-98.4375 0,-98.4376 -341.2456,0.317 -341.2457,0.317 -0.317,341.2456 -0.317,341.2457 98.4376,-10e-5 98.4375,0 0,-243.125 z" fill="#b5314c"></path></g></svg></g></svg>