<svg xmlns="http://www.w3.org/2000/svg" xmlns:xlink="http://www.w3.org/1999/xlink" width="100" height="100" viewBox="0 0 100 100"><circle stroke="none" fill="#ffffff" r="48%" cx="50%" cy="50%"></circle><g transform="translate(50 50) scale(0.69 0.69) rotate(0) translate(-50 -50)" style="fill:#b5314c"><svg fill="#b5314c" xmlns:x="http://ns.adobe.com/Extensibility/1.0/" xmlns:i="http://ns.adobe.com/AdobeIllustrator/10.0/" xmlns:graph="http://ns.adobe.com/Graphs/1.0/" xmlns="http://www.w3.org/2000/svg" xmlns:xlink="http://www.w3.org/1999/xlink" version="1.1" x="0px" y="0px" viewBox="0 0 100 100" style="enable-background:new 0 0 100 100;" xml:space="preserve"><g><g i:extraneous="self"><g><path d="M5273.1,2400.1v-2c0-2.8-5-4-9.7-4s-9.7,1.3-9.7,4v2c0,1.8,0.7,3.6,2,4.9l5,4.9c0.3,0.3,0.4,0.6,0.4,1v6.4     c0,0.4,0.2,0.7,0.6,0.8l2.9,0.9c0.5,0.1,1-0.2,1-0.8v-7.2c0-0.4,0.2-0.7,0.4-1l5.1-5C5272.4,2403.7,5273.1,2401.9,5273.1,2400.1z      M5263.4,2400c-4.8,0-7.4-1.3-7.5-1.8v0c0.1-0.5,2.7-1.8,7.5-1.8c4.8,0,7.3,1.3,7.5,1.8C5270.7,2398.7,5268.2,2400,5263.4,2400z"></path><path d="M5268.4,2410.3c-0.6,0-1,0.4-1,1c0,0.6,0.4,1,1,1h4.3c0.6,0,1-0.4,1-1c0-0.6-0.4-1-1-1H5268.4z"></path><path d="M5272.7,2413.7h-4.3c-0.6,0-1,0.4-1,1c0,0.6,0.4,1,1,1h4.3c0.6,0,1-0.4,1-1C5273.7,2414.1,5273.3,2413.7,5272.7,2413.7z"></path><path d="M5272.7,2417h-4.3c-0.6,0-1,0.4-1,1c0,0.6,0.4,1,1,1h4.3c0.6,0,1-0.4,1-1C5273.7,2417.5,5273.3,2417,5272.7,2417z"></path></g><g><path d="M83.4,80.1l-10-13.8c-0.6-0.8-1.6-1.1-2.5-0.7L64,68.5c-0.4,0.2-0.7,0.5-1,0.8l-6.7,11c-0.3,0.6-0.9,0.9-1.6,1L41,82.5     c-0.5,0-0.9,0.3-1.3,0.6l-5.2,5.2c-0.4,0.4-0.8,0.6-1.3,0.6L21,89.8c-0.7,0-1.3,0.4-1.7,1.1l-2,3.6c-0.8,1.4,0.2,3.1,1.8,3.1     h62.6c1.1,0,2.1-0.9,2.1-2.1V81.3C83.8,80.9,83.7,80.4,83.4,80.1z"></path><ellipse transform="matrix(8.746190e-03 -1 1 8.746190e-03 3.4944 71.7175)" cx="37.9" cy="34.1" rx="7.4" ry="7.4"></ellipse><path d="M19.6,61.7c1.1,0,2.2-0.5,2.8-1.5l2-2.9c1.6-2.4,3.9-4.3,6.5-5.4v11.9l-1.5,9.8L24.2,86l8.2-0.6l0.7-0.7l3.6-8.7     c0.1-0.3,0.2-0.6,0.2-0.9l1.2-8.1l8.1,3.3l-0.8,8.3l7.9-0.7l1-9.6c0.2-1.7-0.8-3.4-2.4-4l-6.6-2.8v-12l0.4-0.1     c4.3-1.1,8.2-3.5,11.2-6.8l0.3,0.7c0.3,0.7,0.9,1.1,1.6,1.1c0.2,0,0.5,0,0.7-0.1c0.9-0.4,1.3-1.4,1-2.3l-1-2.4l1.1-1.3     c1.2-1.5,1-3.6-0.5-4.8c-1-0.8-2.2-0.9-3.3-0.5L51.7,21l12.5-5.2c0.9-0.4,1.4-1.4,1-2.4l-4.1-9.8c-0.4-1-1.4-1.4-2.4-1L46.3,7.8     l-0.5-1.1c-0.4-0.9-1.4-1.3-2.3-1c-0.9,0.4-1.3,1.4-1,2.3l11.3,27.5l-1.7,2c-2.1,2.6-5,4.5-8.3,5.3l-0.8,0.2     c-1.3,0.3-2.5,0.5-3.9,0.5h-1.8c-2.2,0-4.5,0.3-6.7,1c-4.8,1.5-9.1,4.6-12,8.8l-2,2.9c-1.1,1.6-0.6,3.7,0.9,4.7     C18.3,61.4,18.9,61.7,19.6,61.7z"></path></g></g></g></svg></g></svg>