<svg xmlns="http://www.w3.org/2000/svg" xmlns:xlink="http://www.w3.org/1999/xlink" width="100" height="100" viewBox="0 0 100 100"><circle stroke="none" fill="#ffffff" r="48%" cx="50%" cy="50%"></circle><g transform="translate(50 50) scale(0.69 0.69) rotate(0) translate(-50 -50)" style="fill:#b5314c"><svg fill="#b5314c" xmlns="http://www.w3.org/2000/svg" xmlns:xlink="http://www.w3.org/1999/xlink" version="1.1" x="0px" y="0px" viewBox="0 0 100 100" style="enable-background:new 0 0 100 100;" xml:space="preserve"><path d="M90,74.4c2.8,0,5-2.3,5-5c0-2.8-2.3-5-5-5c-2.8,0-5,2.3-5,5c0,0.1,0,0.3,0,0.4l-4.7,0.7c-0.8-4.8-5-8.5-10-8.5  c-2.2,0-4.3,0.7-5.9,1.9l-3-3.9c3.7-3,6.1-7.6,6.1-12.7c0-1.8-0.3-3.5-0.8-5.1l14.1-5.3c0.9,2.2,3.3,3.4,5.7,2.9  c2.7-0.6,4.5-3.3,3.9-6c-0.6-2.7-3.3-4.5-6-3.9c-2.7,0.6-4.5,3.3-3.9,6c0,0.1,0,0.2,0.1,0.2l-14.1,5.3c-0.4-1.1-1-2.2-1.7-3.2  L83,25.3c1.2,1.4,3.1,2.2,5,1.7c2.7-0.6,4.5-3.3,3.9-6c-0.6-2.7-3.3-4.5-6-3.9c-2.7,0.6-4.5,3.3-3.9,6c0.1,0.5,0.3,1.1,0.6,1.5  L64.2,37.6c-0.7-0.9-1.4-1.8-2.3-2.5l9.5-11.9c1.1,0.8,2.5,1.1,3.9,0.8c2.7-0.6,4.5-3.3,3.9-6c-0.6-2.7-3.3-4.5-6-3.9  c-2.7,0.6-4.5,3.3-3.9,6c0.2,1.1,0.8,2,1.5,2.6l-9.5,11.9c-2.8-2.3-6.4-3.7-10.3-3.7c-5,0-9.5,2.3-12.5,5.9l-8.6-6.5  c0.9-1.3,1.4-2.9,1.4-4.6c0-4.5-3.7-8.2-8.2-8.2s-8.2,3.7-8.2,8.2c0,4.5,3.7,8.2,8.2,8.2c2.6,0,4.8-1.2,6.3-3l8.6,6.5  c-1.8,2.4-3,5.3-3.2,8.5H21.4c-0.2-4.4-3.8-7.8-8.2-7.8c-4.5,0-8.2,3.7-8.2,8.2s3.7,8.2,8.2,8.2c4.4,0,8-3.5,8.2-7.8h13.4  c0,0.2,0,0.4,0,0.6c0,3.2,0.9,6.2,2.5,8.7l-8.1,5.4c-1.5-1.6-3.6-2.6-6-2.6c-4.5,0-8.2,3.7-8.2,8.2s3.7,8.2,8.2,8.2s8.2-3.7,8.2-8.2  c0-1.9-0.6-3.6-1.7-5l8.1-5.3c2.9,4.2,7.8,7,13.4,7c3.6,0,6.9-1.2,9.6-3.1l3,3.9C61.4,66.2,60,69,60,72.1c0,5.6,4.6,10.2,10.2,10.2  c3.8,0,7.2-2.1,8.9-5.3l4.2,2.1c-0.2,0.6-0.4,1.2-0.4,1.9c0,2.8,2.3,5,5,5s5-2.3,5-5c0-2.8-2.3-5-5-5c-1.8,0-3.4,1-4.3,2.5l-4.2-2.1  c0.6-1.3,0.9-2.7,0.9-4.2c0-0.3,0-0.6,0-1l4.7-0.7C85.5,72.7,87.6,74.4,90,74.4z"></path></svg></g></svg>