<svg xmlns="http://www.w3.org/2000/svg" xmlns:xlink="http://www.w3.org/1999/xlink" width="100" height="100" viewBox="0 0 100 100"><circle stroke="none" fill="#ffffff" r="48%" cx="50%" cy="50%"></circle><g transform="translate(50 50) scale(0.69 0.69) rotate(0) translate(-50 -50)" style="fill:#b5314c"><svg fill="#b5314c" xmlns="http://www.w3.org/2000/svg" xmlns:xlink="http://www.w3.org/1999/xlink" version="1.1" x="0px" y="0px" viewBox="0 0 100 100" enable-background="new 0 0 100 100" xml:space="preserve"><g display="none"><rect x="-540.877" y="-277.172" display="inline" fill="#b5314c" width="1370.931" height="1263.231"></rect></g><g display="none" opacity="0.31"><g display="inline"><path d="M43.785,24.465c0-6.23-5.069-11.299-11.299-11.299c-6.23,0-11.299,5.069-11.299,11.299c0,6.23,5.069,11.299,11.299,11.299    C38.716,35.763,43.785,30.694,43.785,24.465z M24.187,24.465c0-4.576,3.723-8.299,8.299-8.299s8.299,3.723,8.299,8.299    s-3.723,8.299-8.299,8.299S24.187,29.041,24.187,24.465z"></path><path d="M36.495,94.793c3.44,0,6.24-2.799,6.24-6.24V51.361h9.985V92.09c0,0.829,0.671,1.5,1.5,1.5s1.5-0.671,1.5-1.5V51.314    c5.216-0.471,9.319-4.863,9.319-10.2v-2.862H55.72V28.107c3.439-2.937,6.658-1.647,11.503,0.677    c2.693,1.292,5.591,2.682,8.571,2.682c2.228,0,4.501-0.777,6.769-2.952c0.295-0.283,0.461-0.674,0.461-1.083V9.241    c0-0.601-0.359-1.144-0.912-1.38c-0.553-0.234-1.193-0.118-1.627,0.297c-3.617,3.47-6.904,2.158-11.965-0.27    c-4.706-2.257-10.039-4.814-15.34,0.27c-0.295,0.283-0.461,0.674-0.461,1.083v2.401v15.789v10.821H28.685    c-6.457,0-11.71,5.253-11.71,11.71v16.82c0,3.107,2.283,5.691,5.26,6.163v15.606c0,3.441,2.799,6.24,6.24,6.24H36.495z     M55.72,9.905c3.44-2.937,6.658-1.635,11.503,0.688c3.955,1.897,8.353,4.006,12.801,1.613v14.56    c-3.439,2.938-6.658,1.637-11.503-0.688c-2.693-1.292-5.591-2.682-8.571-2.682c-1.396,0-2.811,0.305-4.23,1.068V11.643V9.905z     M25.235,88.552v-18.53h-2.02c-1.787,0-3.24-1.453-3.24-3.24v-16.82c0-4.803,3.907-8.71,8.71-8.71h33.353    c-0.074,3.933-3.296,7.109-7.246,7.109H39.735v40.191c0,1.787-1.453,3.24-3.24,3.24h-8.02    C26.688,91.793,25.235,90.339,25.235,88.552z"></path></g></g><g><path d="M64.414,81.483v2.214c7.154-3.072,13.138-8.358,17.091-14.991h-2.377C75.557,74.248,70.452,78.708,64.414,81.483z"></path><path d="M18.495,68.706c3.953,6.633,9.937,11.919,17.091,14.991v-2.214c-6.038-2.776-11.143-7.235-14.714-12.777H18.495z"></path><path d="M81.505,31.294c-3.953-6.633-9.937-11.919-17.091-14.991v2.214c6.038,2.775,11.143,7.235,14.714,12.777H81.505z"></path><path d="M35.586,18.517v-2.214c-7.154,3.072-13.138,8.358-17.091,14.991h2.377C24.444,25.752,29.548,21.292,35.586,18.517z"></path><path d="M50.575,21.007c3.14,0,5.695-2.555,5.695-5.695v-2.327c0-3.14-2.555-5.695-5.695-5.695h-1.149   c-3.14,0-5.695,2.555-5.695,5.695v2.327c0,3.141,2.555,5.695,5.695,5.695H50.575z"></path><path d="M40.319,29.666v1.628v3.017h19.362v-3.017v-1.628c0-3.914-3.184-7.098-7.098-7.098h-5.166   C43.503,22.568,40.319,25.752,40.319,29.666z"></path><path d="M50.575,65.689h-1.149c-2.172,0-4.063,1.224-5.023,3.017c-0.428,0.799-0.672,1.71-0.672,2.678v2.327   c0,3.14,2.555,5.695,5.695,5.695h1.149c3.14,0,5.695-2.555,5.695-5.695v-2.327c0-0.968-0.244-1.879-0.672-2.678   C54.638,66.913,52.747,65.689,50.575,65.689z"></path><path d="M40.319,92.711h19.362v-4.645c0-3.914-3.184-7.098-7.098-7.098h-5.166c-3.914,0-7.098,3.184-7.098,7.098V92.711z"></path><path d="M14.107,50.206h1.149c3.14,0,5.695-2.555,5.695-5.695v-2.327c0-3.141-2.555-5.695-5.695-5.695h-1.149   c-3.14,0-5.695,2.555-5.695,5.695v2.327C8.412,47.652,10.967,50.206,14.107,50.206z"></path><path d="M24.362,58.866c0-3.914-3.184-7.098-7.098-7.098h-5.166C8.184,51.768,5,54.952,5,58.866v4.645h19.362V58.866z"></path><path d="M84.745,50.206h1.148c3.141,0,5.695-2.555,5.695-5.695v-2.327c0-3.141-2.555-5.695-5.695-5.695h-1.148   c-3.14,0-5.695,2.555-5.695,5.695v2.327C79.05,47.652,81.605,50.206,84.745,50.206z"></path><path d="M87.902,51.768h-5.166c-3.914,0-7.098,3.184-7.098,7.098v4.645H95v-4.645C95,54.952,91.816,51.768,87.902,51.768z"></path></g></svg></g></svg>