<svg xmlns="http://www.w3.org/2000/svg" xmlns:xlink="http://www.w3.org/1999/xlink" width="100" height="100" viewBox="0 0 100 100"><circle stroke="none" fill="#ffffff" r="48%" cx="50%" cy="50%"></circle><g transform="translate(50 50) scale(0.69 0.69) rotate(0) translate(-50 -50)" style="fill:#b5314c"><svg fill="#b5314c" xmlns="http://www.w3.org/2000/svg" xmlns:xlink="http://www.w3.org/1999/xlink" version="1.1" x="0px" y="0px" viewBox="0 0 24 24" style="enable-background:new 0 0 24 24;" xml:space="preserve"><g><path d="M14,15c0.4,1.7,2.1,3,4,3c1.9,0,3.6-1.3,4-3H14z"></path><path d="M13,20V6.7c0.3-0.2,0.5-0.4,0.7-0.7h3.8L14,14l1.3,0L18,8l2.7,6l1.3,0l-3.6-8H20V4h-6.3c-0.2-0.3-0.4-0.6-0.7-0.7V2h-2v1.3   c-0.3,0.2-0.6,0.4-0.7,0.7H4v2h1.6L2,14l1.3,0L6,8l2.7,6l1.3,0L6.4,6h3.8c0.2,0.3,0.4,0.6,0.7,0.7V20H8l-1,2h10l-1-2H13z"></path><path d="M10,15H2c0.4,1.7,2.1,3,4,3C7.9,18,9.6,16.7,10,15z"></path></g></svg></g></svg>