<svg xmlns="http://www.w3.org/2000/svg" xmlns:xlink="http://www.w3.org/1999/xlink" width="100" height="100" viewBox="0 0 100 100"><circle stroke="none" fill="#ffffff" r="48%" cx="50%" cy="50%"></circle><g transform="translate(50 50) scale(0.69 0.69) rotate(0) translate(-50 -50)" style="fill:#b5314c"><svg fill="#b5314c" version="1.1" xmlns="http://www.w3.org/2000/svg" xmlns:xlink="http://www.w3.org/1999/xlink" x="0px" y="0px" viewBox="0 0 100 92.31" enable-background="new 0 0 100 92.31" xml:space="preserve"><path fill="#b5314c" d="M54.842,0.02c-0.1-0.01-0.2-0.02-0.3-0.02c-2.66,0-4.5,2.155-4.5,4.814c0,2.62,1.02,4.75,5.02,4.805v0.015
	c18.999,0.26,35.618,16.489,35.618,36.408c0,20.079-16.489,36.648-36.568,36.648c-19.164,0-35.073-14.46-36.474-33.458h8.455
	L13.044,27.539L0,49.233h8C9.414,73.231,29.483,92.31,53.952,92.31C79.341,92.31,100,71.551,100,46.158
	C100,21.069,79.82,0.495,54.842,0.02z"></path><path fill="#b5314c" d="M54.112,69.421c1.59,0,2.89,1.29,2.89,2.89c0,1.601-1.3,2.89-2.89,2.89c-1.595,0-2.89-1.289-2.89-2.89
	C51.223,70.711,52.518,69.421,54.112,69.421z"></path><path fill="#b5314c" d="M73.201,25.764c1.6,0,2.89,1.295,2.89,2.89c0,1.595-1.29,2.885-2.89,2.885c-1.59,0-2.88-1.29-2.88-2.885
	C70.321,27.059,71.611,25.764,73.201,25.764z"></path><path fill="#b5314c" d="M73.201,60.412c1.6,0,2.89,1.3,2.89,2.89s-1.29,2.891-2.89,2.891c-1.59,0-2.88-1.301-2.88-2.891
	S71.611,60.412,73.201,60.412z"></path><path fill="#b5314c" d="M79.621,43.413c1.6,0,2.89,1.29,2.89,2.885s-1.29,2.89-2.89,2.89c-1.601,0-2.88-1.295-2.88-2.89
	S78.021,43.413,79.621,43.413z"></path><path fill="#b5314c" d="M59.062,22.444c0-2.265-1.819-4.21-4.079-4.21h-0.881c-2.26,0-4.039,1.945-4.039,4.21v24.204L38.208,58.482
	c-1.75,1.75-1.66,4.59-0.005,6.33c1.66,1.76,4.569,1.76,6.319,0l13.1-13.1c0.1-0.11,0.18-0.22,0.28-0.32
	c0.72-0.745,1.159-1.755,1.159-2.87V22.444z"></path></svg></g></svg>