<svg xmlns="http://www.w3.org/2000/svg" xmlns:xlink="http://www.w3.org/1999/xlink" width="100" height="100" viewBox="0 0 100 100"><circle cx="50%" cy="50%" r="48%" fill="#fff" stroke="none"/><g transform="translate(50 50) scale(0.69 0.69) rotate(0) translate(-50 -50)" style="fill:#b5314c"><svg xmlns="http://www.w3.org/2000/svg" xmlns:xlink="http://www.w3.org/1999/xlink" x="0" y="0" fill="#b5314c" fill-rule="evenodd" clip-rule="evenodd" version="1.1" viewBox="0 0 333 333" xml:space="preserve" style="shape-rendering:geometricPrecision;text-rendering:geometricPrecision;image-rendering:optimizeQuality"><defs><style type="text/css">.fil0{fill:#b5314c}</style></defs><g><path d="M185 312l0 -70 14 -12 -11 -46 -43 0 -11 46 15 12 -1 70 37 0zm-115 -291l9 29 30 0 -24 18 9 29 -24 -18 -25 18 9 -29 -24 -18 30 0 10 -29zm194 0l9 29 31 0 -25 18 9 29 -24 -18 -25 18 10 -29 -25 -18 30 0 10 -29zm-97 28l10 32 34 0 -27 20 10 33 -27 -20 -28 20 11 -33 -28 -20 34 0 11 -32zm82 61c11,0 20,9 20,20 0,11 -9,20 -20,20 -11,0 -20,-9 -20,-20 0,-11 9,-20 20,-20zm20 194l0 -79 16 -13 -12 -53 -49 0 -12 53 17 13 -1 79 41 0zm-185 -194c12,0 21,9 21,20 0,11 -9,20 -21,20 -11,0 -20,-9 -20,-20 0,-11 9,-20 20,-20zm21 194l0 -79 16 -13 -12 -53 -49 0 -12 53 16 13 0 79 41 0zm62 -164c9,0 17,8 17,18 0,9 -8,17 -17,17 -10,0 -18,-8 -18,-17 0,-10 8,-18 18,-18z" class="fil0"/></g></svg></g></svg>