<svg xmlns="http://www.w3.org/2000/svg" xmlns:xlink="http://www.w3.org/1999/xlink" width="100" height="100" viewBox="0 0 100 100"><circle stroke="none" fill="#ffffff" r="48%" cx="50%" cy="50%"></circle><g transform="translate(50 50) scale(0.69 0.69) rotate(0) translate(-50 -50)" style="fill:#b5314c"><svg fill="#b5314c" xmlns="http://www.w3.org/2000/svg" data-name="Capa 1" viewBox="0 0 110 110" x="0px" y="0px"><title>Mesa de trabajo 1 copia 102</title><path d="M19.21,76.88a25.89,25.89,0,0,0-7.4,21.31A25.87,25.87,0,0,0,40.38,76.55L43.85,80A29.69,29.69,0,0,1,36,93.7,30,30,0,0,1,9.64,102,2,2,0,0,1,8,100.36,29.94,29.94,0,0,1,16.3,74,29.69,29.69,0,0,1,30,66.15l3.48,3.47A25.73,25.73,0,0,0,19.21,76.88ZM7.67,55.32c5.76-11.09,11.7-19.64,17.67-25.41,4.83-4.69,9.71-7.59,14.5-8.62a16.08,16.08,0,0,1,10.72,1.14A58.85,58.85,0,0,1,100,8.32,2.06,2.06,0,0,1,101.68,10,59.26,59.26,0,0,1,100,37.46a58.19,58.19,0,0,1-5.71,12.88,58.75,58.75,0,0,1-6.7,9.1,16.08,16.08,0,0,1,1.14,10.72c-1,4.79-3.93,9.67-8.62,14.5-5.77,6-14.32,11.91-25.41,17.67a2.05,2.05,0,0,1-3-1.72L50.45,77.26,32.74,59.55,9.39,58.32a2.05,2.05,0,0,1-1.72-3Zm76.79,7.35a59,59,0,0,1-14.4,10.17,58.54,58.54,0,0,1-15.45,5.21l1,19.12c21.5-11.7,27.71-21.56,29.07-27.88A12.72,12.72,0,0,0,84.46,62.67ZM51.09,27.59A54.27,54.27,0,0,0,35.87,56.87L53.13,74.13A54.33,54.33,0,0,0,82.41,58.91,54.87,54.87,0,0,0,97.86,12.14,54.87,54.87,0,0,0,51.09,27.59ZM12.83,54.38l19.12,1A58.7,58.7,0,0,1,47.34,25.54a12.66,12.66,0,0,0-6.79-.19C34.27,26.77,24.46,33,12.83,54.38ZM55.52,41A13.48,13.48,0,1,1,69,54.48,13.5,13.5,0,0,1,55.52,41Zm4.12,0A9.36,9.36,0,1,0,69,31.64,9.37,9.37,0,0,0,59.64,41Z"></path></svg></g></svg>