<?xml version="1.0" standalone="no"?>
<!DOCTYPE svg PUBLIC "-//W3C//DTD SVG 20010904//EN"
 "http://www.w3.org/TR/2001/REC-SVG-20010904/DTD/svg10.dtd">
<svg version="1.0" xmlns="http://www.w3.org/2000/svg"
 width="1410.000000pt" height="1410.000000pt" viewBox="0 0 1410.000000 1410.000000"
 preserveAspectRatio="xMidYMid meet">
<metadata>
Created by potrace 1.11, written by Peter Selinger 2001-2013
</metadata>
<g transform="translate(0.000000,1410.000000) scale(0.100000,-0.100000)"
fill="#000000" stroke="none">
<path d="M7850 13531 c-135 -136 -753 -758 -1374 -1382 -621 -624 -1188 -1194
-1260 -1267 l-131 -133 101 -97 c56 -53 156 -149 224 -212 67 -63 141 -133
164 -155 23 -22 100 -94 170 -160 71 -66 148 -138 171 -160 23 -22 101 -96
175 -165 73 -69 150 -141 170 -160 20 -19 97 -91 170 -160 73 -69 162 -152
196 -185 34 -33 109 -103 165 -155 108 -101 202 -189 338 -319 l84 -80 -1074
-1074 c-591 -591 -1083 -1084 -1093 -1096 -19 -21 -17 -22 1048 -1088 586
-586 1066 -1070 1066 -1074 0 -4 -107 -116 -237 -248 -131 -132 -427 -433
-658 -667 -231 -235 -503 -511 -605 -614 -102 -103 -286 -289 -409 -414 l-224
-227 34 -35 c18 -18 30 -34 26 -34 -4 0 109 -116 251 -258 141 -142 583 -587
981 -989 l724 -731 271 276 c149 151 349 353 443 448 l173 173 -143 144 c-128
129 -954 970 -985 1003 -10 10 67 92 420 447 238 239 459 462 491 496 32 33
60 61 62 61 2 0 28 26 59 58 30 31 284 287 563 568 279 281 514 518 521 527
16 19 -21 57 -1502 1531 -516 514 -626 628 -617 640 7 8 505 507 1106 1109
l1094 1095 -60 58 c-34 33 -96 93 -139 134 -42 41 -140 135 -216 208 -198 190
-483 464 -574 552 -43 41 -160 154 -260 250 -101 96 -214 204 -251 240 -37 36
-149 144 -250 240 -270 259 -329 318 -329 324 0 3 93 100 208 214 114 115 542
548 952 963 410 414 785 793 833 841 l88 89 -243 246 c-554 562 -645 653 -654
652 -5 0 -119 -112 -254 -248z"/>
</g>
</svg>
