<svg xmlns="http://www.w3.org/2000/svg" width="666.667" height="666.667" preserveAspectRatio="xMidYMid meet" version="1.0" viewBox="0 0 500 500"><metadata>Created by potrace 1.11, written by Peter Selinger 2001-2013</metadata><g fill="#000" stroke="none"><path d="M2370 4086 c-250 -250 -452 -457 -450 -459 3 -2 57 -53 120 -113 129 -122 401 -378 470 -442 l45 -41 -328 -328 -327 -328 320 -320 c176 -176 319 -323 318 -326 -2 -4 -146 -152 -321 -330 l-318 -323 303 -303 303 -303 132 132 133 133 -172 172 -173 173 324 324 323 323 -323 322 -324 321 333 333 333 333 -173 164 c-94 91 -235 226 -312 302 l-141 136 308 310 c169 170 307 313 307 318 -1 5 -58 69 -128 142 l-127 133 -455 -455z" transform="translate(0.000000,500.000000) scale(0.100000,-0.100000)"/></g></svg>